<?xml version="1.0" standalone="no"?>
<!DOCTYPE svg PUBLIC "-//W3C//DTD SVG 20010904//EN"
 "http://www.w3.org/TR/2001/REC-SVG-20010904/DTD/svg10.dtd">
<svg version="1.0" xmlns="http://www.w3.org/2000/svg"
 width="500.000000pt" height="500.000000pt" viewBox="0 0 500.000000 500.000000"
 preserveAspectRatio="xMidYMid meet">

<g transform="translate(0.000000,500.000000) scale(0.100000,-0.100000)"
fill="#000000" stroke="none">
<path d="M2270 4990 c-469 -49 -900 -218 -1275 -499 -127 -96 -334 -297 -438
-426 -280 -346 -468 -777 -533 -1220 -22 -147 -25 -513 -6 -650 69 -482 247
-898 539 -1260 104 -129 311 -330 438 -426 558 -418 1242 -587 1925 -473 595
99 1136 420 1538 911 76 92 208 298 271 422 129 253 203 488 253 806 16 107
17 523 0 640 -55 392 -182 736 -385 1044 -402 611 -1026 1009 -1752 1117 -121
18 -457 26 -575 14z m570 -205 c750 -114 1390 -578 1729 -1253 100 -199 181
-456 218 -692 25 -161 25 -519 0 -680 -119 -758 -582 -1394 -1262 -1730 -779
-386 -1718 -297 -2417 227 -116 87 -327 292 -410 398 -255 325 -420 705 -484
1115 -25 158 -25 501 -1 655 84 529 321 989 692 1343 386 369 869 586 1415
636 91 8 418 -4 520 -19z"/>
<path d="M2285 4723 c-298 -37 -506 -96 -753 -214 -248 -118 -436 -254 -632
-455 -324 -333 -518 -713 -601 -1179 -20 -113 -24 -163 -24 -375 0 -276 16
-399 81 -623 236 -822 914 -1428 1764 -1577 176 -31 479 -38 650 -16 272 36
494 102 725 216 640 315 1072 894 1207 1615 20 105 23 153 23 385 0 287 -11
382 -72 600 -241 874 -985 1506 -1903 1620 -78 9 -396 12 -465 3z m22 -545 c4
-7 10 -83 13 -168 l5 -155 100 0 100 0 3 156 c2 117 6 160 16 168 9 8 79 11
222 9 l209 -3 3 -169 c1 -100 7 -175 13 -182 6 -7 32 -16 57 -20 73 -10 172
-43 227 -74 109 -63 227 -194 279 -311 52 -118 71 -305 45 -431 -31 -148 -133
-283 -281 -370 l-77 -45 62 -29 c161 -76 289 -189 346 -306 48 -99 64 -177 65
-318 0 -148 -14 -215 -76 -340 -34 -70 -58 -101 -133 -176 -130 -129 -226
-175 -480 -230 l-40 -9 -5 -180 -5 -180 -209 -3 c-143 -2 -213 1 -222 9 -10 8
-14 51 -16 168 l-3 156 -100 0 -100 0 -5 -155 c-3 -85 -9 -161 -13 -168 -12
-17 -422 -17 -434 1 -4 6 -10 82 -13 167 l-5 155 -277 3 c-252 2 -278 4 -287
20 -12 22 -11 392 0 415 9 15 27 17 157 17 102 0 152 4 160 12 17 17 17 1759
0 1776 -8 8 -58 12 -158 12 -100 0 -150 4 -158 12 -15 15 -17 390 -2 419 10
18 24 19 290 19 l280 0 0 151 c0 84 5 159 10 170 10 18 23 19 220 19 156 0
211 -3 217 -12z"/>
<path d="M2325 3387 c-3 -7 -4 -145 -3 -307 l3 -295 115 -3 c217 -6 336 24
409 103 63 68 86 192 57 305 -31 122 -99 173 -251 189 -171 18 -325 22 -330 8z"/>
<path d="M2323 2312 c-5 -11 -6 -175 -3 -364 l5 -343 115 -3 c120 -3 287 16
379 44 66 19 113 61 148 132 26 52 28 66 28 172 0 175 -37 255 -142 313 -85
46 -153 58 -345 64 -173 6 -178 5 -185 -15z"/>
</g>
</svg>
